<svg xmlns="http://www.w3.org/2000/svg" viewBox="0 0 555 390">
  <polygon fill="#b4aba7" points="112.5 112.5 2.5 2.5 112.5 2.5"/>
  <path fill="#432c23" d="M286.94,66.94C245.68,25.68,189.72,2.5,131.37,2.5h-18.87v110l220,220h220L286.94,66.94ZM195,57.5c0,15.19-12.31,27.5-27.5,27.5h0c-15.19,0-27.5-12.31-27.5-27.5h0c0-15.19,12.31-27.5,27.5-27.5h0c15.19,0,27.5,12.31,27.5,27.5h0Z"/>
  <path fill="#ed1c24" d="M332.5,332.5H112.5c-60.75,0-110-49.25-110-110h0c0-60.75,49.25-110,110-110l220,220Z"/>
  <polygon fill="#432c23" points="332.5 332.5 277.5 387.5 250 387.5 305 332.5"/>
  <polygon fill="#432c23" points="250 332.5 195 387.5 167.5 387.5 222.5 332.5"/>
</svg>
